<mxfile host="app.diagrams.net" modified="2022-08-24T05:01:12.565Z" agent="5.0 (Windows NT 10.0; Win64; x64) AppleWebKit/537.36 (KHTML, like Gecko) Chrome/104.0.0.0 Safari/537.36" etag="C9RH0sPgrHPMGoBnyWZT" version="20.2.7" type="github">
  <diagram id="yutaokde5rgCjSdjhKZ_" name="Page-1">
    <mxGraphModel dx="860" dy="425" grid="1" gridSize="10" guides="1" tooltips="1" connect="1" arrows="1" fold="1" page="1" pageScale="1" pageWidth="850" pageHeight="1100" math="0" shadow="0">
      <root>
        <mxCell id="0" />
        <mxCell id="1" parent="0" />
        <mxCell id="Br_UARtnUvyVMYgoBP5G-3" value="" style="rounded=1;whiteSpace=wrap;html=1;fontFamily=Times New Roman;" vertex="1" parent="1">
          <mxGeometry x="200" y="80" width="120" height="60" as="geometry" />
        </mxCell>
        <mxCell id="Br_UARtnUvyVMYgoBP5G-5" value="" style="rounded=1;whiteSpace=wrap;html=1;" vertex="1" parent="1">
          <mxGeometry x="200" y="160" width="120" height="60" as="geometry" />
        </mxCell>
        <mxCell id="Br_UARtnUvyVMYgoBP5G-6" value="" style="rounded=1;whiteSpace=wrap;html=1;" vertex="1" parent="1">
          <mxGeometry x="200" y="240" width="120" height="60" as="geometry" />
        </mxCell>
        <mxCell id="Br_UARtnUvyVMYgoBP5G-13" value="" style="verticalLabelPosition=bottom;verticalAlign=top;html=1;shape=card;whiteSpace=wrap;size=20;arcSize=12;fontFamily=Times New Roman;fontSize=12;" vertex="1" parent="1">
          <mxGeometry x="390" y="80" width="200" height="60" as="geometry" />
        </mxCell>
        <mxCell id="Br_UARtnUvyVMYgoBP5G-14" value="" style="verticalLabelPosition=bottom;verticalAlign=top;html=1;shape=card;whiteSpace=wrap;size=20;arcSize=12;fontFamily=Times New Roman;fontSize=12;" vertex="1" parent="1">
          <mxGeometry x="390" y="160" width="200" height="60" as="geometry" />
        </mxCell>
        <mxCell id="Br_UARtnUvyVMYgoBP5G-15" value="" style="verticalLabelPosition=bottom;verticalAlign=top;html=1;shape=card;whiteSpace=wrap;size=20;arcSize=12;fontFamily=Times New Roman;fontSize=12;" vertex="1" parent="1">
          <mxGeometry x="390" y="240" width="200" height="60" as="geometry" />
        </mxCell>
        <mxCell id="Br_UARtnUvyVMYgoBP5G-16" value="" style="shape=flexArrow;endArrow=classic;html=1;rounded=0;fontFamily=Times New Roman;fontSize=12;entryX=0;entryY=0;entryDx=0;entryDy=40;entryPerimeter=0;width=10;endSize=3.67;" edge="1" parent="1" source="Br_UARtnUvyVMYgoBP5G-3" target="Br_UARtnUvyVMYgoBP5G-13">
          <mxGeometry width="50" height="50" relative="1" as="geometry">
            <mxPoint x="310" y="135" as="sourcePoint" />
            <mxPoint x="370" y="120" as="targetPoint" />
            <Array as="points">
              <mxPoint x="330" y="120" />
            </Array>
          </mxGeometry>
        </mxCell>
        <mxCell id="Br_UARtnUvyVMYgoBP5G-17" value="" style="shape=flexArrow;endArrow=classic;html=1;rounded=0;fontFamily=Times New Roman;fontSize=12;entryX=0;entryY=0;entryDx=0;entryDy=40;entryPerimeter=0;width=10;endSize=3.67;" edge="1" parent="1">
          <mxGeometry width="50" height="50" relative="1" as="geometry">
            <mxPoint x="320" y="200.00142857142856" as="sourcePoint" />
            <mxPoint x="390" y="201.43" as="targetPoint" />
            <Array as="points">
              <mxPoint x="330" y="201.43" />
            </Array>
          </mxGeometry>
        </mxCell>
        <mxCell id="Br_UARtnUvyVMYgoBP5G-18" value="" style="shape=flexArrow;endArrow=classic;html=1;rounded=0;fontFamily=Times New Roman;fontSize=12;entryX=0;entryY=0;entryDx=0;entryDy=40;entryPerimeter=0;width=10;endSize=3.67;" edge="1" parent="1">
          <mxGeometry width="50" height="50" relative="1" as="geometry">
            <mxPoint x="320" y="269.2814285714285" as="sourcePoint" />
            <mxPoint x="390" y="270.71000000000004" as="targetPoint" />
            <Array as="points">
              <mxPoint x="330" y="270.71000000000004" />
            </Array>
          </mxGeometry>
        </mxCell>
      </root>
    </mxGraphModel>
  </diagram>
</mxfile>
